# xmcd
#
# Track frame offsets: 
#        150
#        16645
#        32315
#        48114
#        64279
#        79676
#        96092
#        119077
#        140758
#        160908
#        175946
#        192501
#        216334
#        234544
#        265184
#        293125
#
# Disc length: 4145 seconds
#
# Revision: 2
# Processed by: cddbd v1.5.2PL0 Copyright (c) Steve Scherf et al.
# Submitted via: ExactAudioCopy v0.99pb3
#
DISCID=e1102f10
DTITLE=Dag Vag - Klassiker CD1
DYEAR=2007
DGENRE=Rock
TTITLE0=Du Får Aldrig Nog
TTITLE1=(Ge) Bullen (Ett Ben)
TTITLE2=Glappkontakt
TTITLE3=Hämta Mig
TTITLE4=Samma Sak
TTITLE5=Dimma
TTITLE6=Ge Mig En Pistol
TTITLE7=Bland Gamla Och Unga
TTITLE8=Tom
TTITLE9=Trycke E För Mycke
TTITLE10=Min Tunna
TTITLE11=Min Pappa
TTITLE12=Sanningens Silverflod
TTITLE13=Blöt Dröm
TTITLE14=Många Gånger Om
TTITLE15=Popitop
EXTD=
EXTT0=
EXTT1=
EXTT2=
EXTT3=
EXTT4=
EXTT5=
EXTT6=
EXTT7=
EXTT8=
EXTT9=
EXTT10=
EXTT11=
EXTT12=
EXTT13=
EXTT14=
EXTT15=
PLAYORDER=
